<?xml version="1.0" encoding="UTF-8" standalone="no"?>
<!-- Created with Inkscape (http://www.inkscape.org/) -->

<svg
   width="296.99997mm"
   height="210mm"
   viewBox="0 0 1122.5196 793.70081"
   version="1.1"
   id="svg1"
   xml:space="preserve"
   xmlns="http://www.w3.org/2000/svg"
   xmlns:svg="http://www.w3.org/2000/svg"><defs
     id="defs1" /><g
     id="layer1"><path
       id="path1"
       style="fill:#000000"
       d="m 513.11915,153.86719 c -1.28695,0.18349 -2.4572,0.97633 -3.29101,2.52539 -2.09673,3.89532 -0.68053,9.15919 3.20898,11.92188 2.86101,2.03213 3.35506,3.3606 1.8457,4.96289 -0.99044,1.05149 -1.04409,1.484 -0.29296,2.35351 0.50643,0.58624 1.35499,1.06641 1.88476,1.06641 1.26576,0 1.75795,0.84413 2.88086,4.93359 1.01523,3.69736 0.73615,4.66251 -0.95703,3.3125 -0.91762,-0.73164 -1.00991,-0.63469 -0.59375,0.625 0.35337,1.06961 0.1264,1.62786 -0.80664,1.97657 -1.57556,0.58883 -6.04883,-3.97549 -6.04883,-6.17188 0,-0.77379 -0.52745,-1.96629 -1.17187,-2.65039 -0.92851,-0.98569 -1.44592,-1.08047 -2.48829,-0.45508 -1.1987,0.71923 -1.2167,0.93274 -0.20507,2.41602 0.61052,0.89516 1.49631,1.6289 1.96679,1.6289 1.23299,0 5.63583,5.72608 5.38086,6.99805 -0.369,1.84075 -3.08702,1.29127 -3.37109,-0.68164 -0.25439,-1.76683 -1.36126,-3.5199 -2.21094,-3.5 -0.25214,0.006 -0.90355,0.28229 -1.44726,0.61328 -1.38907,0.84564 0.14226,3.44662 2.54492,4.32422 1.26279,0.46125 1.71506,1.04979 1.45898,1.89649 -0.26639,0.88076 0.66656,1.9212 3.30274,3.68359 2.02077,1.35098 6.08222,5.10561 9.02539,8.34375 5.041,5.54621 5.67818,6.64499 10.98633,18.94922 3.09907,7.18371 5.76223,13.37968 5.91796,13.76953 0.15572,0.38985 -1.38852,1.27941 -3.43164,1.97656 -5.66318,1.93237 -11.64843,7.75392 -11.64843,11.33008 0,0.82704 0.50065,1.00382 2.00976,0.71289 1.1049,-0.21301 0.42364,0.2578 -1.51367,1.04688 -4.91076,2.00015 -11.77798,6.60689 -13.89063,9.31836 -4.27813,5.49077 -5.79689,11.48368 -4.13671,16.3164 l 0.91015,2.65039 4.625,-4.83593 c 5.6889,-5.94953 6.19342,-5.52739 0.66797,0.55859 -6.60325,7.2732 -8.84727,13.63975 -8.21875,23.31836 0.62458,9.61775 5.66158,18.4168 13.3457,23.31836 3.22632,2.05799 4.6284,2.52148 7.63282,2.52148 2.23009,0 4.42714,-0.46862 5.57226,-1.18945 1.03954,-0.65438 2.03325,-1.05165 2.20899,-0.88281 0.9497,0.91239 -5.19929,3.32483 -8.40821,3.29883 -1.04494,-0.008 -3.2719,-0.61408 -4.94922,-1.34571 -2.47074,-1.07774 -3.12275,-1.14834 -3.43164,-0.375 -0.86957,2.17703 1.76234,7.67989 5.63868,11.79102 1.92956,2.04648 2.72949,3.71623 3.36328,7.01758 1.38498,7.21417 1.71641,16.60692 0.7832,22.22851 -1.64579,9.9142 -1.75962,13.87058 -0.45117,15.78907 1.06772,1.56548 1.69621,1.75586 5.79492,1.75586 2.52853,0 6.46008,0.33206 8.73633,0.73632 2.27625,0.40426 8.50115,1.1495 13.83203,1.65625 16.55235,1.57347 17.6067,1.15633 3.84766,-1.51953 -13.72143,-2.66848 -16.16419,-2.97851 -23.51368,-2.97851 h -7.35546 l -0.88868,-2.0586 c -0.48832,-1.13249 -0.67465,-2.98391 -0.41601,-4.11523 0.60608,-2.65106 3.08876,-5.20674 4.6543,-4.78906 7.72947,2.06216 9.83343,2.78177 8.98828,3.07226 -0.54959,0.1889 -2.93272,-0.21913 -5.29493,-0.90625 -4.13304,-1.20225 -4.3499,-1.20049 -5.75781,0.0234 -1.46385,1.27272 -1.96918,4.85423 -0.90234,6.38672 0.31349,0.45033 4.39696,0.95518 9.82031,1.21289 7.70913,0.36633 9.22023,0.27731 8.90039,-0.52344 -0.21187,-0.53042 0.53988,-1.80075 1.67188,-2.82226 1.24228,-1.12108 1.5509,-1.67595 0.77929,-1.40039 -0.85997,0.30707 -1.27734,0.11131 -1.27734,-0.59571 0,-0.67944 0.90726,-1.15181 2.56641,-1.33789 3.71324,-0.41648 4.66357,0.47378 1.94531,1.82422 -1.25194,0.62197 -2.62987,1.764 -3.06055,2.53711 -1.47846,2.65401 0.0797,3.62078 8.50391,5.27734 4.36774,0.85891 8.81859,1.78369 9.88867,2.05469 2.64696,0.67036 4.99414,-1.5888 4.99414,-4.80664 0,-2.66383 -0.88104,-3.59351 -3.90039,-4.11719 -1.73249,-0.30049 -2.30261,0.002 -3.4668,1.83594 -0.76642,1.20751 -1.43267,1.88013 -1.48047,1.49414 -0.22686,-1.83319 0.33493,-3.53632 1.43165,-4.33789 1.0138,-0.74102 0.50626,-0.89783 -3.17774,-0.98633 -3.57091,-0.0858 -3.97682,-0.20415 -2.19141,-0.64062 4.00463,-0.97897 9.40846,-0.74267 12.05469,0.52734 2.4744,1.18754 2.54803,1.34036 2.3125,4.73633 -0.2738,3.9477 -1.63113,6.44463 -4,7.36133 l -1.60156,0.61914 1.58008,0.0449 c 1.80012,0.0507 5.12953,-3.38575 5.8125,-6 0.24809,-0.94944 0.24133,-2.72878 -0.0137,-3.95313 -0.28085,-1.34904 0.2497,-5.41745 1.3457,-10.32617 0.99468,-4.45484 2.30172,-11.09871 2.9043,-14.76562 0.60257,-3.66696 2.24168,-13.61552 3.64257,-22.10743 1.40093,-8.49187 2.81153,-17.15011 3.13477,-19.24023 0.52119,-3.37006 0.87716,-3.95321 3.14453,-5.15625 1.40623,-0.74612 3.66273,-2.19504 5.01367,-3.21875 5.23336,-3.9657 4.5323,-3.93092 9.87305,-0.49023 5.91407,3.80999 9.50237,4.82324 15.7793,4.45507 5.52545,-0.32409 8.92385,-1.72693 13.44336,-5.54882 9.03539,-7.64085 11.80366,-21.8582 6.33984,-32.56055 -1.70985,-3.34921 -2.97391,-4.73298 -6.17969,-6.75977 -2.21675,-1.40152 -5.12926,-2.74616 -6.47265,-2.98828 -1.93341,-0.34846 -2.62899,-0.93496 -3.33789,-2.81836 -1.10177,-2.92719 -6.46655,-7.78483 -10.57813,-9.57812 -1.68359,-0.73432 -2.47673,-1.34357 -1.76367,-1.35157 0.71306,-0.008 1.57834,-0.72526 1.92383,-1.59375 0.3455,-0.86849 2.25053,-4.89435 4.23242,-8.94726 1.98188,-4.05296 4.40089,-9.10749 5.37695,-11.23047 4.20935,-9.15546 6.19498,-12.30099 8.71875,-13.81055 1.40624,-0.84111 3.59119,-2.34428 4.85547,-3.33984 1.52633,-1.20191 2.75534,-1.65131 3.6543,-1.33985 1.0923,0.37846 1.00293,0.10052 -0.45508,-1.43554 -1.05487,-1.11131 -1.51093,-2.10691 -1.0957,-2.39258 0.39125,-0.26916 1.28675,-1.68324 1.98828,-3.14063 1.24505,-2.58646 1.31676,-2.62272 3.03516,-1.54101 1.65772,1.04353 1.8292,1.01575 2.92578,-0.48828 1.69512,-2.3251 1.43741,-3.37301 -0.94141,-3.83008 l -2.10547,-0.4043 1.19141,-2.75976 c 1.1825,-2.73624 1.58694,-2.88457 4.60937,-1.68555 0.8488,0.33672 1.59431,-0.0595 2.43555,-1.29297 1.37423,-2.01493 0.94041,-3.24414 -1.14648,-3.24414 -1.78022,0 -1.78049,-0.77489 -0.004,-4.12109 l 1.41406,-2.66407 -4.1875,-3.54101 c -5.90229,-4.99134 -10.4397,-7.01173 -17.72461,-7.89258 -6.97963,-0.84395 -7.12548,-0.76722 -8.76953,4.58203 -0.76915,2.50262 -1.28215,3.10938 -2.62305,3.10938 -1.21041,0 -1.66601,-0.40565 -1.66601,-1.48438 0,-1.13992 0.33976,-1.40082 1.46094,-1.11914 1.75137,0.44001 1.96974,-0.56687 0.25976,-1.19727 -1.36983,-0.50501 -1.23058,-0.59787 -2.44531,1.64063 -0.79059,1.45689 -0.73669,1.82727 0.37109,2.60547 0.71052,0.49914 1.64553,1.02161 2.07813,1.16015 0.5406,0.17312 0.47144,1.16875 -0.22071,3.1836 -1.11618,3.24928 -1.25927,3.33094 -3.28711,1.85742 -1.92877,-1.40157 -2.22744,-1.322 -3.26757,0.87109 -0.77115,1.62602 -0.72026,2.0283 0.35156,2.78125 0.68935,0.48427 1.59091,0.98885 2.00391,1.1211 0.46078,0.14758 0.27976,1.14828 -0.46875,2.58984 -0.67086,1.29195 -1.21875,2.77328 -1.21875,3.29297 0,1.00982 -3.31666,1.33462 -3.92774,0.38477 -0.65541,-1.01881 0.82943,-2.46118 2.06445,-2.00586 0.70823,0.2611 1.02351,0.15694 0.76172,-0.25 -0.7625,-1.18528 -2.46151,-0.76413 -3.34961,0.83007 -0.70651,1.26827 -0.61777,1.68591 0.52344,2.49024 0.77976,0.54958 1.26568,1.59492 1.12695,2.42383 -0.13415,0.80151 0.1618,3.42099 0.65821,5.82031 l 0.90234,4.36133 -4.0293,8.35937 c -2.21634,4.59723 -5.4581,11.4841 -7.20312,15.30469 -2.0056,4.39111 -3.65375,7.06769 -4.48047,7.27539 -1.09325,0.27466 -0.70524,0.99556 2.36328,4.39844 2.9701,3.29374 4.22575,4.16179 6.57422,4.54297 1.5964,0.25912 2.90234,0.71026 2.90234,1.0039 0,0.29363 -1.89093,0.24302 -4.20117,-0.11328 -8.54271,-1.3175 -14.64599,0.46045 -20.45508,5.95703 -4.07957,3.86017 -5.0264,3.90666 -2.0039,0.0996 2.32805,-2.93235 10.24634,-6.70679 14.98828,-7.14453 1.99926,-0.18456 3.63476,-0.54875 3.63476,-0.80859 0,-0.25983 -1.61476,-2.21482 -3.58984,-4.34375 -3.95282,-4.26072 -9.68183,-7.53958 -16.44727,-9.41602 -6.05039,-1.67814 -17.59302,-1.18168 -22.64453,0.97461 -1.97984,0.84512 -3.81326,1.29226 -4.07422,0.99414 -0.26097,-0.29813 -3.15816,-5.92108 -6.43945,-12.49609 -5.40999,-10.84058 -6.07591,-12.63819 -7.13477,-19.29883 -0.69515,-4.37286 -1.01513,-9.40447 -0.79101,-12.43359 0.23446,-3.16876 0.1,-5.08789 -0.35547,-5.08789 -0.40222,0 -0.65621,-1.02681 -0.56641,-2.28125 0.33647,-4.69912 0.064,-5.55229 -1.69336,-5.3125 -1.33508,0.18216 -1.60082,0.6026 -1.41796,2.24414 0.12382,1.11146 0.69803,2.47666 1.27734,3.0332 1.5467,1.48594 1.28883,2.31641 -0.7207,2.31641 -1.5641,0 -1.85889,-0.43789 -2.48047,-3.68555 -0.38786,-2.02648 -0.65761,-4.78964 -0.59961,-6.14063 0.0869,-2.0222 -0.15264,-2.45703 -1.35547,-2.45703 -1.81738,0 -2.42596,2.90767 -0.85742,4.09375 0.8341,0.63072 2.68359,6.54102 2.68359,8.57422 0,0.174 -0.79576,0.31641 -1.76953,0.31641 -1.62545,0 -1.76118,-0.25423 -1.64648,-3.10157 0.14338,-3.55916 -0.50758,-4.54459 -2.2793,-3.44726 -1.44057,0.89221 -1.2729,3.02244 0.33203,4.21484 1.3924,1.03451 1.00201,3.2954 -0.62109,3.59571 -1.89524,0.35065 -3.02865,-2.53653 -3.08985,-7.8711 -0.042,-3.66262 -0.32557,-4.93757 -1.15234,-5.19336 -1.63803,-0.5068 -2.16729,-1.59999 -2.17969,-4.5 -0.0272,-6.36492 -4.93796,-11.28875 -8.79883,-10.73828 z m 113.56055,10.36719 c 0.11168,-0.10729 2.50217,0.11902 5.3125,0.50195 6.15694,0.8389 11.5374,3.12118 15.5293,6.58594 1.62754,1.41262 3.28688,2.56836 3.6875,2.56836 1.49044,0 0.62251,2.17787 -3.19141,8.01367 -2.15542,3.29818 -5.47119,9.44752 -7.36914,13.66602 -3.26133,7.24891 -3.63429,7.7606 -6.78125,9.3164 -3.74459,1.85135 -6.12429,4.50059 -6.42773,7.15625 -0.11227,0.98258 -2.74872,7.09143 -5.85938,13.57422 -3.11062,6.48284 -6.10421,12.81387 -6.65234,14.06836 -1.12998,2.58617 -1.37173,2.72916 -1.99219,1.17578 -0.55286,-1.38407 11.81128,-27.35379 17.10547,-35.92773 3.14281,-5.08975 4.15108,-6.21852 5.29297,-5.93164 1.08032,0.27142 1.3485,0.0429 1.14453,-0.97461 -0.14647,-0.73069 -0.70082,-1.32813 -1.23047,-1.32813 -1.2517,0 -8.60737,11.66372 -12.16992,19.29883 -1.53089,3.28097 -4.53892,9.5515 -6.68555,13.9336 -2.14663,4.38205 -3.90234,8.2513 -3.90234,8.59765 0,0.34636 -0.32869,0.62891 -0.73047,0.62891 -1.34122,0 -0.76596,-1.54938 5.16406,-13.91797 7.34476,-15.31927 19.78729,-35.80544 21.66016,-35.66016 1.42706,0.1107 1.81234,-1.72292 0.45312,-2.1582 -1.58016,-0.50604 -15.73198,22.69575 -22.13867,36.29688 -6.70294,14.23013 -9.03097,18.00636 -6.27148,10.17578 0.27205,-0.77199 -0.0289,-0.53415 -0.66992,0.52734 -0.64108,1.06149 -1.48319,1.92969 -1.8711,1.92969 -0.38792,0 1.50722,-4.24198 4.21289,-9.42578 2.70571,-5.18385 5.03361,-9.31644 5.17188,-9.1836 0.13827,0.13284 -0.13078,0.92752 -0.59766,1.76563 -0.46689,0.83811 -0.74042,1.62619 -0.60742,1.75195 0.133,0.12576 2.41072,-4.00687 5.06055,-9.18359 2.64978,-5.17677 4.73528,-9.41211 4.63476,-9.41211 -0.10052,0 -1.0498,1.42122 -2.10937,3.1582 -1.05956,1.73698 -2.22285,3.1582 -2.58399,3.1582 -1.67196,0 -1.35804,-1.95729 1.39844,-8.73047 1.63498,-4.01739 2.96252,-7.72474 2.94922,-8.23632 -0.0133,-0.51159 -1.09469,1.75614 -2.40234,5.03711 -2.45953,6.1708 -4.68923,10.42513 -3.76954,7.19336 0.7484,-2.62987 -0.20244,-1.76707 -1.16015,1.05273 -0.49162,1.44749 -2.98879,7.01986 -5.54883,12.38477 -2.56005,5.36486 -4.53224,9.87207 -4.38281,10.01562 0.14942,0.14356 1.12444,-1.56156 2.16601,-3.78906 5.36428,-11.47204 8.04746,-16.60467 8.31055,-15.90039 0.37214,0.99618 -12.181,26.93945 -13.03516,26.93945 -0.35058,0 0.0262,-1.25069 0.83789,-2.7793 0.81172,-1.52855 1.46011,-3.02911 1.44141,-3.33398 -0.0187,-0.30488 -0.85275,0.95735 -1.85352,2.80469 -1.00073,1.84734 -2.13756,3.17168 -2.52539,2.9414 -0.45044,-0.26743 -0.44071,-0.89449 0.0274,-1.73437 0.40287,-0.72319 0.71922,-1.57184 0.70312,-1.88672 -0.0161,-0.31487 -0.51778,0.29593 -1.11719,1.35742 -0.99792,1.76726 -3.23632,2.70694 -3.23632,1.35938 0,-1.04964 12.59471,-26.42986 13.92578,-28.0625 1.95407,-2.39685 2.38187,-5.37603 1.33594,-9.29688 l -0.9336,-3.50195 3.73828,-7.18164 c 2.05599,-3.94985 4.77379,-10.33547 6.03907,-14.19141 1.26523,-3.85594 2.39223,-7.09974 2.5039,-7.20703 z m 1.97656,6.90039 c -0.26793,0.0162 -0.55662,0.22136 -0.84179,0.65625 -0.47304,0.72137 -0.35116,1.28925 0.39453,1.82617 0.59518,0.42855 1.13758,1.53264 1.20508,2.45508 0.0675,0.92244 0.25525,0.45148 0.41601,-1.04688 0.2451,-2.28436 -0.36991,-3.93921 -1.17383,-3.89062 z m -13.30468,6.9668 c 1.49864,0 2.98242,0.90856 2.98242,1.82812 0,0.57493 -0.75216,0.97852 -1.82617,0.97852 -1.33927,0 -1.82617,-0.37498 -1.82617,-1.4043 0,-0.77199 0.301,-1.40234 0.66992,-1.40234 z m 13.41406,0.26562 c -0.0768,0.0738 -0.12898,0.31973 -0.14648,0.72852 -0.0317,0.73982 0.14006,1.15312 0.38281,0.91992 0.24277,-0.23321 0.26957,-0.83713 0.0586,-1.34375 -0.1166,-0.27993 -0.21811,-0.37848 -0.29492,-0.30469 z m 15.91992,0 c -1.05534,-0.0388 -2.53122,0.89995 -4.07422,2.65235 l -1.44726,1.64257 1.86328,-1.57422 c 1.44269,-1.21917 2.05743,-1.38479 2.73242,-0.73632 0.67499,0.64839 1.0691,0.64873 1.74805,-0.004 0.63393,-0.60905 0.65724,-1.05486 0.0801,-1.60937 -0.24548,-0.23584 -0.55057,-0.35817 -0.90235,-0.3711 z m -128.98438,1.57422 c -0.33657,-0.049 -0.63058,0.0929 -0.96484,0.41406 -1.09446,1.05148 -1.10221,2.15127 -0.0234,3.1875 0.5796,0.55683 1.2632,0.59248 2.19141,0.11524 1.69341,-0.8707 1.69989,-1.52657 0.0254,-2.98242 -0.511,-0.44428 -0.89195,-0.68534 -1.22852,-0.73438 z m 112.33399,1.23242 c -0.0768,0.0738 -0.12898,0.31973 -0.14648,0.72852 -0.0317,0.73983 0.14006,1.15508 0.38281,0.92187 0.24277,-0.23321 0.26957,-0.83908 0.0586,-1.3457 -0.1166,-0.27993 -0.21811,-0.37848 -0.29492,-0.30469 z m -2.75391,0.25586 c -0.40244,0.029 -0.80941,0.43315 -0.9746,1.19531 -0.1378,0.63583 0.26496,1.08985 0.96679,1.08985 0.75239,0 1.11102,-0.46032 0.95703,-1.22852 -0.14827,-0.73965 -0.54673,-1.0856 -0.94922,-1.05664 z m 25.10157,0.45508 c 0.38,-0.0122 0.86983,0.0522 1.46289,0.20117 0.94588,0.23764 1.53329,0.85739 1.40625,1.48633 -0.33078,1.63759 -1.63973,1.7367 -3.0586,0.23047 -1.09259,-1.15992 -0.95054,-1.88144 0.18946,-1.91797 z m -125.9629,1.12891 c 0.18748,0 1.01656,1.46899 1.84375,3.26562 0.82724,1.79664 1.37683,3.39102 1.22071,3.54102 -0.15613,0.14999 -0.45979,-0.13563 -0.67383,-0.63477 -0.21404,-0.49914 -0.916,-2.09358 -1.56055,-3.54101 -0.64455,-1.44749 -1.01756,-2.63086 -0.83008,-2.63086 z m 114.89649,0 c -0.38397,0 -6.64914,8.69966 -9.22461,12.80859 -3.08321,4.91898 -0.965,2.65772 2.95899,-3.1582 2.14849,-3.18447 4.51617,-6.65922 5.25976,-7.72071 0.7436,-1.06149 1.19603,-1.92968 1.00586,-1.92968 z m -12.01172,0.96679 c -0.0768,0.0738 -0.12893,0.31973 -0.14648,0.72852 -0.0317,0.73982 0.14007,1.15507 0.38281,0.92187 0.24277,-0.23321 0.26957,-0.83908 0.0586,-1.3457 -0.1166,-0.27993 -0.21812,-0.37848 -0.29492,-0.30469 z m -0.47265,2.83789 c -0.1075,0.0601 -0.26503,0.31545 -0.46289,0.75782 -0.3453,0.77199 -0.62696,1.87612 -0.62696,2.45507 0,0.66355 0.23123,0.53508 0.62696,-0.3496 0.34531,-0.77199 0.6289,-1.87804 0.6289,-2.45704 0,-0.33177 -0.0585,-0.46633 -0.16601,-0.40625 z m -6.67188,3.21289 c -1.24025,0 -1.46154,1.47559 -0.37695,2.51758 0.47284,0.45425 0.25474,1.88735 -0.63867,4.17578 -0.74815,1.9163 -1.60588,4.2733 -1.90625,5.23829 -1.02925,3.30663 0.32216,0.97788 2.16992,-3.73829 2.1167,-5.40258 2.37303,-8.19336 0.75195,-8.19336 z m -92.37695,0.85352 c 0.0178,-0.2764 0.69882,0.7114 1.51367,2.19531 0.81486,1.48391 1.35129,2.82288 1.19336,2.97461 -0.31574,0.30333 -2.75893,-4.36289 -2.70703,-5.16992 z m 117.51953,0.55078 c 1.4752,0 2.98242,0.90242 2.98242,1.78711 0,1.34643 -0.93554,1.71003 -2.39062,0.92774 -1.31843,-0.70885 -1.75564,-2.71485 -0.5918,-2.71485 z m -333.59181,6.54297 c -0.41836,0.23563 -0.73061,0.88885 -0.9707,1.50781 0.32584,-0.50116 0.64449,-1.00692 0.9707,-1.50781 z m 309.27736,0.0703 c -0.1075,0.0601 -0.26503,0.3135 -0.46289,0.75586 -0.3453,0.77199 -0.62891,1.87608 -0.62891,2.45508 0,0.66355 0.23319,0.53512 0.62891,-0.34961 0.34526,-0.77199 0.62695,-1.87803 0.62695,-2.45703 0,-0.33177 -0.0566,-0.46438 -0.16406,-0.4043 z m -81.30079,4.90235 c 0.57491,0.0208 2.35782,3.59946 7.41797,14.32812 4.31776,9.15452 6.15561,13.7937 5.65625,14.27344 -0.40687,0.39089 -0.9047,0.44618 -1.10742,0.12305 -1.82867,-2.91485 -12.21484,-26.46243 -12.21484,-27.69336 0,-0.65084 0.0564,-1.0382 0.24804,-1.03125 z m -6.82422,2.33203 1.41016,1.7207 c 1.22008,1.49015 12.9682,26.11253 13.40625,28.09766 0.0877,0.39764 -0.23744,0.86368 -0.72266,1.03515 -0.48521,0.17147 -1.34548,-0.73641 -1.91211,-2.01757 -0.56657,-1.2812 -2.71953,-6.16944 -4.7832,-10.86133 -2.06368,-4.69194 -4.56855,-9.90113 -5.5664,-11.57813 -0.99791,-1.677 -1.81727,-3.80407 -1.82227,-4.72461 z m 83.04883,1.05469 c -0.12835,0.0636 -0.30526,0.24765 -0.5,0.5371 -0.38948,0.57899 -0.70898,1.36791 -0.70898,1.75391 0,0.38599 0.3195,0.22938 0.70898,-0.34961 0.38947,-0.57899 0.70704,-1.36986 0.70704,-1.75586 0,-0.19299 -0.0787,-0.24915 -0.20704,-0.18554 z m -85.79297,0.64257 c 0.56137,-0.0857 2.98976,4.63586 7.88477,15.19922 3.60132,7.77157 6.54883,14.29759 6.54883,14.50196 0,0.20437 -0.41949,0.37109 -0.93164,0.37109 -0.99162,0 -12.77299,-24.87368 -13.46289,-28.42383 -0.20576,-1.05871 -0.22607,-1.61988 -0.0391,-1.64844 z m 7.94922,0.16016 c 0.18868,-0.0878 0.38954,-0.0438 0.56836,0.14453 0.82145,0.86504 11.75977,24.54378 11.75977,25.45703 0,0.39593 -0.31873,0.90892 -0.70899,1.14063 -0.39026,0.23172 -1.7273,-1.7243 -2.9707,-4.34571 -7.42053,-15.64441 -9.55752,-20.72678 -9.14648,-21.75586 0.13325,-0.33357 0.30936,-0.55277 0.49804,-0.64062 z m 72.73047,9.72461 c -0.12835,0.0636 -0.30526,0.24761 -0.5,0.53711 -0.38948,0.57899 -0.70898,1.36791 -0.70898,1.75391 0,0.38594 0.3195,0.22938 0.70898,-0.34961 0.38948,-0.57899 0.70703,-1.36986 0.70703,-1.75586 0,-0.193 -0.0787,-0.24915 -0.20703,-0.18555 z m 5.20313,5.78125 c -0.22492,-0.21608 -0.63388,0.17505 -0.90821,0.86719 -0.39644,1.00022 -0.31325,1.08049 0.40821,0.39258 0.49925,-0.47606 0.72491,-1.04369 0.5,-1.25977 z m -7.95703,0.7207 c 0,-0.38599 -0.62856,0.40487 -1.39844,1.75586 -0.76988,1.35099 -1.40039,2.77222 -1.40039,3.15821 0,0.38595 0.63051,-0.40492 1.40039,-1.75586 0.76988,-1.35098 1.39844,-2.77221 1.39844,-3.15821 z m 6.57422,2.10547 c 0,-0.386 -0.62856,0.40487 -1.39844,1.75586 -0.76988,1.35098 -1.40039,2.7722 -1.40039,3.1582 0,0.38599 0.63051,-0.40488 1.40039,-1.75586 0.76988,-1.35094 1.39844,-2.77221 1.39844,-3.1582 z m -47.64454,4.70899 c 1.01423,-0.0838 1.97846,-0.078 2.87891,0.0195 1.2006,0.13 2.28907,0.4232 3.23437,0.88281 5.55881,2.70263 7.99024,6.17881 7.99024,11.42578 0,3.82768 -1.24417,5.39131 -5.96485,7.49219 -2.53392,1.12771 -2.69699,1.40322 -3.05664,5.17383 -0.20899,2.19109 -0.59559,5.10803 -0.85742,6.48047 -0.61569,3.22729 0.20707,3.82658 6.38867,4.66015 3.57577,0.48218 5.48552,0.43217 7.01954,-0.1875 2.83458,-1.14505 5.23632,-5.9954 5.23632,-10.57617 0,-3.86736 0.69052,-4.76836 6.37305,-8.31445 3.45533,-2.15626 5.15528,-2.05834 9.43164,0.54297 2.4685,1.50153 2.53663,1.65821 2.04102,4.71093 -0.282,1.73698 -0.54619,4.68842 -0.58789,6.5586 -0.0647,2.90011 0.22483,3.64835 1.96679,5.08789 2.74672,2.26981 9.31946,2.36988 13.63868,0.20703 4.29267,-2.14959 8.89232,-1.38582 12.4707,2.07227 2.49777,2.41376 2.68492,2.91173 3.15039,8.35937 0.37009,4.33133 0.23777,6.27958 -0.52148,7.7207 -0.5585,1.06002 -1.24335,3.1421 -1.52344,4.62696 -0.90757,4.81128 -6.94258,9.32088 -13.42383,10.0332 -3.14781,0.34596 -3.77459,0.13888 -7.61523,-2.52148 -2.30218,-1.59471 -5.20824,-4.32655 -6.45704,-6.07032 -1.24881,-1.74377 -3.08492,-3.46657 -4.08007,-3.83008 -2.04943,-0.74853 -7.57096,-0.883 -9.35157,-0.22656 -1.65553,0.61033 -3.08433,3.53755 -3.72265,7.62696 -0.37621,2.41012 -1.16653,4.08104 -2.57032,5.42968 -1.84127,1.76897 -2.51248,1.94727 -7.28906,1.94727 -4.50729,0 -6.10916,-0.37122 -11.19531,-2.59375 -7.30301,-3.19122 -13.07798,-3.7726 -19.7168,-1.98828 -6.86819,1.84596 -8.91546,2.87589 -11.04687,5.56054 -2.79133,3.51585 -1.6863,4.42194 2.1582,1.76954 3.20273,-2.20966 6.23242,-2.37354 6.23242,-0.33789 0,1.62357 -2.98489,4.60804 -4.61914,4.61914 -2.37618,0.0161 -3.50201,0.94958 -5.18359,4.30273 -0.83666,1.66828 -2.94288,4.06575 -4.68164,5.32617 -2.71266,1.96635 -3.74932,2.29025 -7.30469,2.28125 -5.09301,-0.0127 -7.26311,-1.01655 -9.08399,-4.20117 -0.77246,-1.35098 -2.27783,-3.34612 -3.3457,-4.43359 -1.89881,-1.93362 -1.94051,-2.16893 -1.84961,-10.66016 0.0865,-8.07593 0.24624,-8.99609 2.27734,-13.16602 2.19428,-4.50479 3.72324,-6.02604 14.06446,-13.99414 7.14201,-5.503 5.73019,-7.57422 -5.16211,-7.57422 -9.62963,0 -10.79444,-1.44169 -5.25781,-6.50195 1.57714,-1.44149 3.51607,-2.19583 7.55078,-2.9375 6.07746,-1.11718 6.16416,-1.14255 13.96094,-4.04883 5.10675,-1.90359 5.71471,-2.3373 6.75781,-4.84179 0.63037,-1.51354 1.14648,-3.51197 1.14648,-4.43946 0,-2.33636 3.3145,-5.29209 9.35547,-8.34179 3.60531,-1.82011 7.10188,-2.87943 10.14453,-3.13086 z m -22.28906,7.65234 c 0.49635,-0.31554 0.60971,-0.012 -0.041,1.15625 -0.37871,0.67981 -1.42266,1.86513 -2.32226,2.63281 -1.6039,1.36868 -1.60335,1.34365 0.11328,-1.22851 0.87465,-1.31057 1.75365,-2.24501 2.25,-2.56055 z m -4.60352,6.31641 c 0.26336,-0.15049 0.0184,0.47398 -0.69921,1.85156 -0.85455,1.64048 -1.93092,2.98719 -2.39258,2.99219 -0.46166,0.005 -1.66157,0.16541 -2.66602,0.35742 -1.4378,0.27484 -1.36012,0.17522 0.36524,-0.4707 1.20529,-0.45128 2.5773,-1.32306 3.04687,-1.9375 1.31241,-1.71746 2.08235,-2.64249 2.3457,-2.79297 z m 81.76758,13.47851 c 0.52733,-0.20274 1.15765,-0.17856 1.40039,0.0547 0.24274,0.23321 -0.1889,0.39964 -0.95898,0.36914 -0.85101,-0.0337 -1.02417,-0.19979 -0.44141,-0.42383 z m 221.09376,1.94922 c -0.0115,0.006 -0.0236,0.0114 -0.0352,0.0176 0.44365,2.49816 0.80529,4.76963 1.20117,7.10156 0.0568,-0.0266 0.0902,-0.042 0.14649,-0.0684 -0.41811,-2.18274 -0.80277,-4.49361 -1.3125,-7.05078 z m 3.31055,19.06445 c -0.11881,0.0535 -0.15169,0.0671 -0.27149,0.1211 0.0963,0.67467 0.18513,1.44398 0.2793,2.13086 0.0912,-0.0401 0.17452,-0.0772 0.26562,-0.11719 -0.0907,-0.71163 -0.1762,-1.42392 -0.27343,-2.13477 z m -201.04102,14.55469 c -2.2335,0 -2.94161,0.50137 -5.91016,4.17383 -1.85488,2.29472 -4.67149,4.88853 -6.25781,5.76563 -2.26114,1.25017 -2.97344,2.12228 -3.29688,4.03711 -0.22694,1.34332 -0.3041,2.54678 -0.17187,2.67382 0.13224,0.12705 1.9457,-0.87165 4.02929,-2.21875 9.05827,-5.85626 18.06681,-3.60942 19.38477,4.83399 1.47951,9.47846 -5.45003,26.95557 -13.90039,35.06055 -3.05798,2.93293 -10.55204,6.73151 -13.2832,6.73242 -2.00807,6.7e-4 -2.72693,1.4914 -3.79883,7.88867 -0.43591,2.60158 -0.99776,5.24251 -1.24805,5.86914 -0.39506,0.98905 -0.0308,1.07112 2.75977,0.62305 6.66401,-1.07001 13.25516,-4.32403 20.20898,-9.97657 10.36311,-8.42377 20.62695,-29.10573 20.62695,-41.5625 0,-8.36715 -2.0949,-14.07963 -6.82031,-18.59179 -3.91549,-3.73888 -7.55846,-5.3086 -12.32226,-5.3086 z m 0.44921,3.10742 c 1.03895,-0.0251 2.12915,0.0856 3.1875,0.35938 7.16857,1.85446 9.62319,6.16293 9.64649,16.93359 0.0198,9.18015 -1.0515,12.92959 -6.20117,21.70899 -2.15092,3.66692 -5.41259,8.07607 -7.24805,9.79687 -4.43043,4.15377 -4.24983,2.98627 0.32227,-2.08398 10.12632,-11.22973 13.20447,-33.01606 5.63086,-39.85156 -1.23895,-1.1182 -2.76855,-1.5234 -6.37305,-1.68555 -4.51324,-0.20302 -4.74219,-0.29931 -4.74219,-1.96875 0,-1.83084 2.66054,-3.13351 5.77734,-3.20899 z m -51.13476,8.59766 c -0.19543,-0.18748 -0.46286,-0.0656 -0.81836,0.11719 -1.31849,0.67791 -1.48534,1.77997 -1.93555,12.88281 -0.8854,21.83505 -2.96797,46.75096 -4.50781,53.91406 -1.59234,7.40738 -2.06476,8.15184 -6.44922,10.14454 -4.45713,2.02566 -6.51367,4.43857 -6.17578,7.25 l 0.22851,1.89062 10.5918,-0.0527 c 11.01626,-0.0531 20.66409,-1.45488 23.86328,-3.46875 2.15956,-1.3594 3.83051,-6.74981 6.84961,-22.07813 1.32849,-6.74478 2.54122,-11.90334 2.69336,-11.46484 0.42728,1.23148 -3.35213,21.708 -5.05273,27.37695 -0.83347,2.77842 -2.21858,5.68711 -3.07813,6.46289 -4.16763,3.76151 -24.52816,5.63455 -48.09765,4.42578 -17.36123,-0.89037 -24.716,-2.10124 -27.38672,-4.51172 -0.91188,-0.82296 -1.65821,-1.13383 -1.65821,-0.68945 0,1.13904 2.91752,2.84038 5.83203,3.40039 2.29277,0.44054 2.35072,0.51469 0.82032,1.0586 -1.81521,0.64511 -3.78605,-0.099 -6.56836,-2.47852 -1.12636,-0.96329 -1.59751,-1.11745 -1.32813,-0.4375 0.22938,0.57899 1.13395,3.26292 2.00977,5.96484 2.8795,8.88368 6.1528,13.77273 10.7539,16.0586 4.03541,2.0048 13.57209,4.11675 20.62305,4.56836 17.51388,1.12174 33.5245,-1.41681 39.65235,-6.28711 3.21829,-2.5579 4.72732,-5.21861 7.33593,-12.93555 5.54781,-16.41155 15.83594,-72.79922 15.83594,-86.79297 0,-2.94779 -0.19872,-3.45723 -1.27734,-3.26172 -1.39538,0.25292 -1.37834,0.15575 -3.49219,18.26758 -1.2517,10.72475 -3.76492,26.33798 -3.91211,24.30078 -0.10149,-1.40461 2.60038,-23.77829 3.58789,-29.71289 0.38538,-2.31598 0.70208,-5.90292 0.70508,-7.9707 0.004,-3.0184 -0.20545,-3.68264 -1.06641,-3.36524 -0.58981,0.21744 -1.24677,0.12392 -1.46093,-0.20898 -0.21416,-0.33291 -1.07751,-0.43185 -1.91797,-0.2207 -1.24344,0.31239 -1.46454,0.78891 -1.18164,2.56445 0.31238,1.96058 -1.03911,17.43563 -3.10352,35.51953 -0.96306,8.4362 -6.09475,28.47514 -7.89844,30.8418 -2.77961,3.6472 -9.00269,5.25578 -13.69726,3.54101 -1.469,-0.53657 -1.86306,-0.4978 -1.63477,0.16016 0.16553,0.47708 1.7167,1.26083 3.44727,1.74219 5.03553,1.40065 10.96632,-0.44171 13.48047,-4.1875 1.32541,-1.97481 4.35163,-12.29203 5.97265,-20.36133 1.58467,-7.88836 2.19063,-7.51521 0.74219,0.45703 -2.45813,13.52958 -5.39749,21.00017 -9.38086,23.83789 -2.97426,2.11885 -9.69367,2.38072 -12.8125,0.5 -3.38768,-2.04284 -3.91739,-3.93584 -3.11523,-11.11523 0.37588,-3.36423 1.04057,-9.43342 1.47851,-13.48633 0.43794,-4.05296 1.1481,-9.73789 1.57813,-12.63281 0.43003,-2.89497 0.95533,-13.11285 1.16601,-22.70704 0.28335,-12.90356 0.34604,-16.25786 -0.24023,-16.82031 z m -10.52149,3.73633 c 1.39103,0 1.21545,1.38238 -4.36328,34.38867 -1.98985,11.77283 -3.83828,23.06337 -4.10742,25.08985 l -0.49023,3.68359 -15.0625,-0.0859 c -14.80782,-0.0841 -20.62899,-0.53041 -26.4004,-2.02344 l -2.91015,-0.75195 -0.01,-9.27148 c -0.0135,-13.0855 -1.77883,-21.03784 -5.81055,-26.16797 -4.50699,-5.73505 -4.50354,-5.90964 0.082,-5.92774 5.04835,-0.0199 8.88364,-1.72971 14.13086,-6.29492 5.82545,-5.06829 10.40788,-7.72656 13.31836,-7.72656 1.33756,0 4.30356,0.63231 6.58984,1.4043 7.31487,2.46994 10.52185,1.84238 19.88086,-3.88086 2.19202,-1.34048 4.5112,-2.43555 5.15234,-2.43555 z m 36.72266,14.30078 c 0.0768,-0.0738 0.17832,0.0248 0.29492,0.30469 0.211,0.50662 0.18595,1.11249 -0.0566,1.3457 -0.24274,0.2332 -0.41646,-0.18204 -0.38476,-0.92187 0.0175,-0.40879 0.0697,-0.65473 0.14648,-0.72852 z m -3.08203,22.89453 c 0.4255,0 0.57057,0.31518 0.32226,0.70117 -0.24832,0.386 -0.59625,0.70313 -0.77343,0.70313 -0.17718,0 -0.32227,-0.31713 -0.32227,-0.70313 0,-0.38599 0.34795,-0.70117 0.77344,-0.70117 z m -0.57031,2.3711 c 0.0768,-0.0738 0.17832,0.0248 0.29492,0.30468 0.21099,0.50662 0.18594,1.11251 -0.0566,1.34571 -0.24274,0.23321 -0.41647,-0.18206 -0.38477,-0.92188 0.0175,-0.40878 0.0697,-0.65473 0.14649,-0.72851 z m 2.21093,2.26172 c 0.0668,-0.15901 0.16039,-0.13774 0.26172,0.10351 0.20265,0.48249 0.20265,1.27337 0,1.75586 -0.20266,0.4825 -0.36914,0.088 -0.36914,-0.87695 0,-0.48248 0.0406,-0.82346 0.10742,-0.98242 z m -95.8789,16.56835 c -2.77657,-0.006 -9.4278,2.23161 -18.20508,6.22461 -6.44029,2.92986 -8.41393,4.2582 -13.21485,8.88868 -12.51495,12.07065 -16.07124,27.67055 -9.77734,42.88672 4.60576,11.13494 11.28086,17.87014 23.33789,23.54687 8.81452,4.15012 13.35696,5.70727 18.55078,6.35742 l 3.28906,0.41016 2.67188,6.125 c 4.52559,10.36895 6.1406,25.67636 4.01367,38.05664 -0.77365,4.50327 -1.47989,6.07348 -4.88476,10.87696 -2.18888,3.08792 -4.38707,6.34822 -4.88477,7.24414 -0.4977,0.89591 -4.47937,5.47475 -8.84961,10.17578 -10.10073,10.86528 -14.1284,17.04483 -17,26.09179 -1.22518,3.85997 -3.40622,10.49233 -4.84766,14.73829 l -2.62109,7.7207 -0.0625,17.92188 c -0.0721,20.38099 -0.12759,20.16462 5.96875,23.8789 3.19781,1.94831 3.8121,2.0625 11.16797,2.0625 7.43592,0 7.91347,-0.0907 10.71875,-2.04297 1.6149,-1.12387 4.04796,-3.39656 5.40625,-5.04882 3.16115,-3.84543 8.98297,-9.43935 12.98828,-12.47852 1.72186,-1.30653 3.72136,-3.67523 4.44336,-5.26367 0.72199,-1.58845 3.82606,-6.99382 6.89648,-12.01172 3.07047,-5.01795 6.14224,-10.6236 6.82618,-12.45703 1.18857,-3.18631 1.36711,-3.33399 4.0332,-3.33399 1.77159,0 3.76958,0.64151 5.47656,1.75586 2.09023,1.36455 3.61356,1.75391 6.85352,1.75391 4.70368,0 7.552,-0.84345 9.85742,-2.91797 2.46238,-2.21577 4.04163,-1.39828 6.32422,3.26953 1.13253,2.31597 4.57757,8.4746 7.6543,13.68555 3.07669,5.21089 6.18447,10.5787 6.90625,11.92969 0.72178,1.35093 2.86639,3.56116 4.76562,4.9121 4.63776,3.29899 5.90523,4.52158 9.97266,9.59961 3.38435,4.22534 7.18428,7.30179 10.41992,8.4375 0.88002,0.3089 4.66192,0.55679 8.40234,0.55079 6.33267,-0.0103 7.02259,-0.15526 10.02149,-2.10547 6.40973,-4.16834 6.28592,-3.69397 6.20312,-23.73047 -0.0668,-16.17985 -0.21191,-18.10869 -1.71875,-22.92969 -8.45672,-27.05684 -10.26148,-30.53466 -22.54492,-43.45313 -7.02484,-7.38801 -11.82422,-13.27596 -11.82422,-14.50586 0,-0.51897 -0.65019,-1.27672 -1.44531,-1.68554 -2.25871,-1.16133 -7.35336,-8.8754 -7.73047,-11.70508 -0.18703,-1.40342 -0.82842,-4.57629 -1.42578,-7.05078 -2.12279,-8.79365 -0.82547,-17.7256 4.89648,-33.71289 l 3.07618,-8.59766 h 4.5664 c 6.54262,0 11.25739,-1.11239 19.97657,-4.71289 15.24994,-6.29737 22.95197,-13.73325 27.39648,-26.45313 2.38343,-6.82113 2.55038,-16.96237 0.39063,-23.67773 -2.7881,-8.66896 -9.28801,-16.91926 -17.5586,-22.28711 -4.12364,-2.6764 -12.42567,-6.38477 -14.29297,-6.38477 -2.37247,0 -0.72039,1.16717 4.25782,3.00781 18.11355,6.69751 29.34396,22.28717 28.02148,38.89844 -1.01256,12.71844 -7.50781,23.29452 -18.50391,30.12696 -6.57897,4.08782 -6.17256,4.41252 -12.32617,-9.84961 -2.9802,-6.90721 -5.41992,-12.64541 -5.41992,-12.75196 0,-0.10654 0.98607,-0.40191 2.19141,-0.65625 1.2053,-0.25433 2.1914,-0.91066 2.1914,-1.45898 0,-1.19558 -0.36587,-1.23309 -2.29687,-0.24023 -0.80854,0.41567 -2.01969,0.54566 -2.69141,0.28906 -0.93889,-0.35867 -0.58641,-0.71358 1.51953,-1.53321 2.81619,-1.096 3.89325,-2.82563 1.27735,-2.05078 -0.80356,0.23802 -2.07173,0.61613 -2.81836,0.83985 -1.15848,0.34711 -1.9183,-0.91397 -5.1875,-8.59766 -5.30156,-12.46025 -6.47077,-14.84105 -6.54297,-13.33594 -0.0339,0.70536 1.91162,5.88965 4.32226,11.52149 2.41068,5.63178 4.38282,10.56639 4.38282,10.96484 0,1.6758 -1.50689,-1.07705 -5.13282,-9.38086 -2.10684,-4.82491 -4.11522,-9.07275 -4.46289,-9.43945 -1.50575,-1.58816 -0.37526,1.82525 3.42188,10.3418 2.22887,4.99917 3.89839,9.23786 3.71093,9.41796 -0.46657,0.44829 -1.24125,-1.06495 -4.92773,-9.61914 -1.74664,-4.05291 -3.27578,-6.87519 -3.39844,-6.27148 -0.12266,0.60371 1.29182,4.50354 3.14258,8.66602 1.85077,4.16243 3.17779,7.74719 2.94922,7.96679 -0.55317,0.53143 -0.45376,0.71094 -3.62891,-6.50195 -1.52924,-3.47397 -3.0747,-6.61573 -3.43554,-6.98242 -1.42909,-1.45227 -0.53842,1.73617 2.21875,7.93359 l 2.87695,6.46484 -2.87695,1.10547 c -3.04915,1.1721 -4.0291,2.82771 -1.23243,2.08203 4.3722,-1.16571 4.93165,-1.23441 4.93165,-0.60937 0,0.36929 -1.31476,1.16889 -2.92188,1.77539 -1.60712,0.60649 -2.92187,1.44233 -2.92187,1.85938 0,0.96596 0.0442,0.96332 3.17382,-0.29297 1.4424,-0.57899 2.91753,-1.05274 3.27735,-1.05274 0.35982,0 1.48096,1.81568 2.49218,4.03516 4.85464,10.65462 9.31836,21.05779 9.31836,21.7168 0,1.4518 -8.9201,3.31159 -15.70507,3.27539 -18.18961,-0.097 -32.24359,-9.91585 -37.7793,-26.39649 -1.76928,-5.26732 -2.99426,-6.38827 -1.91602,-1.7539 3.08872,13.27542 15.75004,25.32028 30.19922,28.73046 2.00891,0.47413 3.76471,0.92948 3.90235,1.01368 0.13765,0.0842 -0.79213,2.93964 -2.06641,6.3457 -5.8467,15.62782 -6.73163,19.13497 -6.70313,26.54688 0.0148,3.85991 0.36972,9.22775 0.78907,11.92968 l 0.76172,4.91407 -2.35547,1.875 c -2.02585,1.61345 -2.82472,1.82317 -5.69922,1.49609 -3.58404,-0.40779 -6.86932,0.75107 -10.04297,3.54102 -1.82359,1.60305 -1.67196,1.63685 -7.30664,-1.70118 -1.54173,-0.91334 -1.81384,-0.85749 -3.07227,0.61719 -1.337,1.56677 -1.48169,1.58338 -4.59961,0.56641 -2.82984,-0.92304 -3.82678,-0.92625 -8.25,-0.0371 -8.72157,1.75311 -12.25203,1.03445 -18.80469,-3.82227 -2.14287,-1.5883 -4.68695,-2.88724 -5.65429,-2.88672 l -1.75977,0.002 0.23438,-11.65625 c 0.27208,-13.62223 -0.80613,-20.22228 -4.58985,-28.08985 l -2.41797,-5.02539 5.45313,-0.7793 c 13.00773,-1.85861 24.58042,-9.6161 30.50586,-20.44921 3.65077,-6.67448 6.02463,-16.11329 4.05273,-16.11329 -0.40178,0 -0.73046,0.88864 -0.73046,1.97657 0,1.08793 -0.5299,3.69447 -1.17774,5.79101 -5.23456,16.93997 -19.70838,27.32227 -38.08984,27.32227 -7.12486,0 -15.51954,-1.77613 -15.51954,-3.28321 0,-0.55368 1.97214,-5.41863 4.38282,-10.81054 2.41064,-5.39196 4.38281,-10.12133 4.38281,-10.50977 0,-1.17349 1.9766,-1.52303 3.67383,-0.65039 1.1337,0.58295 1.82401,0.60344 2.3789,0.0703 0.55489,-0.53308 0.008,-1.0612 -1.88281,-1.82031 -1.92717,-0.77358 -2.53915,-1.37644 -2.2168,-2.18359 0.44001,-1.10158 1.99662,-1.08722 4.80469,0.0469 0.7163,0.28926 1.27735,0.21182 1.27735,-0.17578 0,-0.38046 -0.98607,-1.08285 -2.19141,-1.5625 -1.20535,-0.47965 -2.19141,-1.00958 -2.19141,-1.17773 0,-0.16815 1.65412,-4.14678 3.67578,-8.83985 2.02171,-4.69302 3.55192,-9.01697 3.4004,-9.60937 -0.21561,-0.84302 -0.40436,-0.77242 -0.87305,0.32617 -0.32936,0.77199 -2.0239,4.63888 -3.76563,8.5918 -1.74168,3.95287 -3.16797,7.505 -3.16797,7.89453 0,0.38954 -0.47731,0.70898 -1.06054,0.70898 -1.0275,0 0.0581,-2.90899 6.11133,-16.37695 0.83845,-1.86548 1.50276,-3.91706 1.47656,-4.56055 -0.0535,-1.31531 -3.55875,5.71707 -7.19922,14.44531 -1.32821,3.18447 -2.70588,5.78907 -3.0625,5.78907 -0.35662,0 -0.64844,-0.11164 -0.64844,-0.24805 0,-0.13641 2.2724,-5.41988 5.05078,-11.74219 2.77842,-6.32225 4.87379,-11.77121 4.65625,-12.10937 -0.21754,-0.33815 -2.71512,4.63019 -5.55078,11.04101 -2.83562,6.41088 -5.39158,11.65625 -5.67969,11.65625 -0.28805,0 1.90925,-5.55018 4.88282,-12.33203 4.74825,-10.82947 6.3984,-15.52418 4.97656,-14.1582 -0.4624,0.44424 -5.41446,10.73199 -9.5332,19.80469 -1.39748,3.0783 -2.65117,5.70329 -2.78516,5.83203 -0.134,0.12873 -1.46808,-0.25973 -2.9668,-0.86133 -3.1969,-1.28328 -3.27734,-1.29402 -3.27734,-0.4375 0,0.36101 1.15041,1.0564 2.55664,1.54492 1.50032,0.52121 2.55664,1.36289 2.55664,2.03516 0,1.85294 -0.77876,2.09253 -3.08008,0.94922 -2.17808,-1.08208 -4.68,-0.84384 -3.89843,0.37109 0.23091,0.35902 1.39957,0.85894 2.5957,1.11133 1.19613,0.2524 2.33762,0.71334 2.53711,1.02344 0.33965,0.52799 -8.58669,22.21659 -9.50781,23.10156 -0.86247,0.82859 -8.55875,-3.87679 -12.46876,-7.62305 -4.83094,-4.62862 -8.32597,-9.95856 -10.58984,-16.15039 -2.56527,-7.01619 -2.44696,-17.48346 0.27734,-24.56445 5.31912,-13.82529 18.71091,-23.90986 36.87305,-27.76368 3.75928,-0.79762 5.29688,-1.43453 5.29688,-2.19726 0,-0.51803 -0.49444,-0.76965 -1.41992,-0.77149 z m 47.11914,6.94336 c -2.17648,0.0706 -2.16013,0.092 0.5625,0.78516 1.53739,0.39143 2.99436,1.21162 3.23828,1.82227 0.34623,0.86684 0.51642,0.89875 0.77539,0.15234 0.47612,-1.37222 -1.96642,-2.84447 -4.57617,-2.75977 z m -2.73633,4.75391 c 0.20826,0.18661 0.45805,0.55616 0.69726,1.06055 0.54589,1.15103 0.59582,1.83398 0.13282,1.83398 -0.88875,0 -1.66946,-1.74635 -1.28125,-2.86523 0.0768,-0.22126 0.24291,-0.21591 0.45117,-0.0293 z m 59.23438,35.83985 c 0.15234,-0.0152 0.32998,0.0502 0.51562,0.22851 0.24275,0.23321 0.30395,0.82294 0.13477,1.31055 -0.24744,0.71299 -0.42061,0.71364 -0.88086,-0.002 -0.45695,-0.71027 -0.22657,-1.4916 0.23047,-1.5371 z m -2.16016,1.44335 c 0.42549,0 0.77344,0.31518 0.77344,0.70118 0,0.386 -0.14509,0.70117 -0.32227,0.70117 -0.17718,0 -0.52513,-0.31517 -0.77344,-0.70117 -0.24832,-0.386 -0.10322,-0.70118 0.32227,-0.70118 z m -2.64258,0.14258 c 0.15059,0.0183 0.36682,0.15446 0.62891,0.40625 0.47541,0.45676 0.69392,0.99393 0.48633,1.19336 -0.48753,0.46838 -1.35157,-0.36207 -1.35157,-1.29883 0,-0.21988 0.0857,-0.31912 0.23633,-0.30078 z m 5.68945,1.28321 c 0.38704,-0.47458 2.20352,3.23489 6.51172,13.17187 2.89521,6.67782 5.09411,12.30467 4.88672,12.50391 -0.20739,0.19925 -0.53949,0.10424 -0.73828,-0.21094 -0.906,-1.43643 -10.74219,-24.33882 -10.74219,-25.01172 0,-0.23257 0.0267,-0.38533 0.082,-0.45312 z m -1.50781,1.375 c 0.46852,0.36525 1.49624,2.73855 5.74024,12.5 2.90363,6.6786 5.15839,12.48934 5.01171,12.91211 -0.14664,0.42277 -2.78947,-5.02431 -5.87304,-12.10352 -3.08361,-7.07922 -5.45024,-13.02014 -5.25977,-13.20313 0.13029,-0.12517 0.22469,-0.22722 0.38086,-0.10546 z m -2.24219,0.68164 c 0.44654,0.2258 1.3149,2.23944 5.10547,10.90429 2.5329,5.78994 5.05793,11.55411 5.61133,12.8086 0.62802,1.42362 0.72141,2.27929 0.24805,2.27929 -0.41712,0 -1.10047,-0.86819 -1.51953,-1.92968 -0.41906,-1.06149 -2.89846,-6.77634 -5.50977,-12.70117 -2.61131,-5.92487 -4.56183,-10.95298 -4.33398,-11.17188 0.14753,-0.14173 0.24959,-0.26472 0.39843,-0.18945 z m -104.66211,0.97851 c 0.13241,0.0486 0.21485,0.17614 0.21485,0.36914 0,0.386 -0.32869,0.89622 -0.73047,1.13477 -0.40178,0.23856 -0.73047,0.11841 -0.73047,-0.26758 0,-0.386 0.32869,-0.89816 0.73047,-1.13672 0.20089,-0.11928 0.38322,-0.14824 0.51562,-0.0996 z m 1.67578,0.80274 c 0.40178,-0.23856 0.73047,0.0401 0.73047,0.61914 0,0.57899 -0.32869,1.24777 -0.73047,1.48633 -0.40179,0.23856 -0.73047,-0.0401 -0.73047,-0.61915 0,-0.57894 0.32868,-1.24776 0.73047,-1.48632 z m 2.7793,0.44922 c 0.56374,-0.28108 0.90594,0.40635 0.44727,1.55468 -0.25333,0.63424 -0.75449,1.1543 -1.11329,1.1543 -0.8326,0 -0.81491,-0.77364 0.0488,-2.08594 0.21573,-0.3277 0.42928,-0.52935 0.61719,-0.62304 z m -6.33789,2.70898 c 0.32143,0 -0.0872,1.49855 -0.9082,3.33203 -0.82102,1.83348 -2.97696,6.80874 -4.79102,11.05469 -3.09625,7.24699 -5.53269,11.48922 -4.23242,7.36914 1.2222,-3.87267 9.38594,-21.75586 9.93164,-21.75586 z m 2.20703,0.70117 c 0.88117,0 1.07603,-0.52425 -4.17578,11.30274 -4.39552,9.89853 -6.16016,13.19237 -6.16016,11.49804 0,-1.31358 9.74041,-22.80078 10.33594,-22.80078 z m 2.57422,0.75196 c 0.10845,-0.0369 0.17517,0.004 0.19727,0.12695 0.13255,0.73995 -1.32668,4.47124 -4.82032,12.50586 -2.67322,6.14793 -5.13842,11.17773 -5.47851,11.17773 -0.34009,0 -0.61736,-0.23589 -0.61719,-0.52539 5.6e-4,-0.91308 9.54878,-22.25042 10.26953,-22.94922 0.19058,-0.18477 0.34077,-0.29906 0.44922,-0.33593 z m 25.14063,4.17773 c -0.23684,0.01 -1.4989,1.53232 -2.80469,3.38281 -2.61563,3.70673 -3.01564,6.6848 -1.16406,8.65039 1.55732,1.65331 5.44923,1.66057 7.5664,0.0137 2.08632,-1.62295 2.11592,-4.60111 0.0703,-7.04101 -0.85943,-1.02517 -1.93982,-2.57487 -2.40039,-3.44336 -0.46058,-0.86849 -1.03072,-1.5725 -1.26757,-1.5625 z m 30.33007,11.95898 c -0.20803,-0.0762 -0.36063,-0.039 -0.4375,0.14063 -0.20407,0.4768 -1.27596,2.20313 -2.38086,3.83594 -2.37954,3.5165 -2.54959,5.98416 -0.54687,7.9082 3.06654,2.94607 9.01431,0.81774 9.00391,-3.22266 -0.005,-2.01883 -4.1824,-8.12875 -5.63868,-8.66211 z m -5.00586,49.10352 c -0.19393,0.01 -0.44483,0.30449 -0.89257,0.88867 -0.53152,0.69343 -0.79354,1.89032 -0.58399,2.66016 0.20955,0.76983 0.7501,1.28099 1.20117,1.13672 1.03238,-0.33019 1.45624,-2.31503 0.82813,-3.8711 -0.22204,-0.55008 -0.3588,-0.82432 -0.55274,-0.81445 z m 41.83204,25.94531 c 0.28745,0 1.33919,1.18338 2.33789,2.63086 0.9987,1.44749 5.65808,6.70893 10.35351,11.69141 4.69549,4.98247 9.64091,10.98258 10.99024,13.33398 2.56883,4.47667 9.09313,22.2885 10.97851,29.97266 0.80092,3.26422 1.10138,8.64505 1.10938,19.81446 0.0123,17.42085 -0.31851,18.80311 -5.33594,22.29492 -2.60101,1.81014 -3.45491,2.01359 -8.09375,1.92969 -12.72697,-0.2301 -14.50409,-1.14969 -21.00781,-10.88086 -1.0677,-1.59754 -4.08375,-4.44007 -6.70117,-6.31641 -3.31024,-2.37294 -5.23755,-4.37352 -6.33204,-6.57031 -0.86538,-1.73708 -2.31853,-4.26234 -3.23046,-5.61328 -5.17543,-7.66716 -9.95629,-16.21507 -10.70704,-19.14649 -0.47261,-1.84549 -0.69427,-4.76576 -0.49218,-6.48828 0.40177,-3.42446 3.26479,-7.67332 5.66211,-8.4043 1.22714,-0.37418 1.46093,-1.06197 1.46093,-4.28711 0,-2.70563 0.4242,-4.40273 1.43555,-5.74219 1.55428,-2.05849 2.74287,-6.36622 3.68359,-13.35742 0.72684,-5.40136 1.8993,-6.75855 7.09961,-8.21094 3.58541,-1.00131 4.12165,-1.40693 5.13477,-3.88476 0.62215,-1.52163 1.36686,-2.76563 1.6543,-2.76563 z m -88.41602,2.83008 2.35547,1.26367 c 1.29609,0.69562 3.93049,3.13824 5.85351,5.42774 3.80682,4.53217 3.89575,4.67794 4.5293,7.46289 0.23726,1.04296 1.58347,3.09648 2.99219,4.5625 1.40871,1.46601 2.90362,3.92867 3.32226,5.47266 1.64149,6.05377 3.07278,9.59849 4.61329,11.42578 3.51084,4.16441 4.10351,5.64503 4.10351,10.25976 0,2.49742 -0.34768,5.42901 -0.77148,6.51563 -0.81996,2.10237 -4.97644,9.08438 -9.53516,16.01367 -1.52365,2.31597 -3.28965,5.40566 -3.92383,6.86719 -0.80696,1.85969 -2.67142,3.7232 -6.21484,6.20703 -3.10765,2.17834 -5.79854,4.75475 -6.9668,6.66992 -2.50577,4.10778 -5.95062,7.82671 -8.30859,8.97071 -1.04526,0.50705 -5.18732,1.12546 -9.20508,1.375 -6.84057,0.4248 -7.48736,0.34738 -10.14844,-1.21094 -1.56297,-0.91528 -3.61445,-2.89301 -4.56055,-4.39453 -1.67187,-2.65347 -1.72061,-3.17569 -1.72461,-18.61719 -0.004,-17.66011 -0.12554,-16.99148 6.59375,-36.39649 4.05713,-11.71672 6.57086,-15.83757 15.47071,-25.37109 4.13508,-4.42954 8.41937,-9.05549 9.52148,-10.2793 z m 26.58789,5.5918 c 0.72305,0 1.20017,0.61138 1.23047,1.57812 l 0.0508,1.58008 0.79102,-1.58008 c 0.43599,-0.86844 1.06409,-1.57812 1.39453,-1.57812 0.60322,0 -0.17015,2.42805 -1.58008,4.95898 -1.0202,1.83137 -2.16358,1.71443 -2.17578,-0.22265 -0.005,-0.86849 -0.2089,-2.28972 -0.45117,-3.15821 -0.32383,-1.16084 -0.12798,-1.57812 0.74023,-1.57812 z m 6.00781,0 c 0.77031,0 1.02145,0.3809 0.73047,1.10937 -0.24387,0.61057 -0.44336,2.0318 -0.44336,3.15821 0,1.41827 -0.36382,2.04883 -1.18164,2.04883 -0.86822,0 -1.06406,-0.41919 -0.74023,-1.58008 0.24226,-0.86849 0.44617,-2.28972 0.45117,-3.15821 0.006,-0.97844 0.45615,-1.57812 1.18359,-1.57812 z m 2.68164,0 c 0.65562,0 0.84382,0.88053 0.63672,2.9668 -0.27616,2.78199 -0.21194,2.90205 1.01367,1.92968 1.15522,-0.91648 1.2654,-0.91461 0.94922,0.0156 -0.19677,0.57899 -1.2835,1.15777 -2.41406,1.28516 -1.95532,0.22027 -2.03331,0.12199 -1.58789,-2.01758 0.25755,-1.23713 0.46875,-2.68411 0.46875,-3.21485 0,-0.53075 0.42074,-0.96484 0.93359,-0.96484 z m 7.11719,0 c 2.32016,0 2.49278,0.4143 1.7207,4.12305 -0.50616,2.43158 -1.73632,2.99032 -1.73632,0.78906 0,-0.772 -0.32869,-1.4043 -0.73047,-1.4043 -0.40179,0 -0.73047,0.6323 -0.73047,1.4043 0,0.77199 -0.46233,1.4043 -1.02734,1.4043 -0.58778,0 -0.91811,-0.52587 -0.77344,-1.22852 1.04863,-5.09308 1.04588,-5.08789 3.27734,-5.08789 z m 8.11719,0 c 2.09674,0 3.96278,2.09105 2.33203,2.61328 -0.41552,0.13311 -0.59949,1.02114 -0.41016,1.97266 0.19965,1.00337 4.1e-4,1.73047 -0.47265,1.73047 -0.44862,0 -0.81446,-0.63231 -0.81446,-1.4043 0,-0.772 -0.32868,-1.4043 -0.73046,-1.4043 -0.40178,0 -0.73047,0.6323 -0.73047,1.4043 0,0.77199 -0.41484,1.4043 -0.91992,1.4043 -0.64015,0 -0.8385,-0.95672 -0.65625,-3.15821 0.24566,-2.9674 0.39072,-3.1582 2.40234,-3.1582 z m 12.46484,0 c 2.149,0 2.17148,0.0389 1.70508,2.98242 -0.34403,2.1713 -0.26598,2.69603 0.28906,1.92969 0.41935,-0.579 0.76744,-1.92093 0.77344,-2.98242 0.007,-1.18447 0.40923,-1.92969 1.03906,-1.92969 0.78528,0 0.92809,0.70007 0.61133,2.98242 -0.36049,2.59747 -0.27113,2.86999 0.68555,2.11133 0.60421,-0.47917 1.30514,-0.67118 1.55859,-0.42774 1.00408,0.96463 -0.47571,1.6504 -3.56054,1.6504 -2.75718,0 -3.24414,-0.21139 -3.24414,-1.4043 0,-0.772 -0.32869,-1.4043 -0.73047,-1.4043 -0.40178,0 -0.73047,0.6323 -0.73047,1.4043 0,0.77199 -0.32868,1.4043 -0.73047,1.4043 -0.80158,0 -0.99146,-3.44366 -0.28711,-5.20704 0.26711,-0.66873 1.30931,-1.10937 2.62109,-1.10937 z m -6.01953,0.0957 c 1.70594,0.063 2.02788,0.19812 0.94531,0.39844 -0.90396,0.16728 -1.64257,0.77731 -1.64257,1.35547 0,0.73828 0.48818,0.93528 1.64257,0.66015 0.904,-0.21535 1.2313,-0.21061 0.72657,0.0117 -0.50495,0.2224 -0.73403,0.69046 -0.50977,1.03907 0.22427,0.3486 -0.0694,0.45707 -0.65234,0.24218 -0.5829,-0.2149 -1.27757,-0.0503 -1.54492,0.36524 -0.26734,0.41557 0.27331,1.04993 1.20312,1.4082 1.49307,0.57528 1.36563,0.65601 -1.0918,0.69531 -1.53034,0.0245 -2.61187,-0.2203 -2.40429,-0.54297 0.20758,-0.32262 0.45744,-1.74389 0.55664,-3.1582 0.17281,-2.4651 0.28846,-2.56621 2.77148,-2.47461 z m 5.85352,0.60547 c -0.38917,0 -0.70703,0.47374 -0.70703,1.05274 0,0.57894 0.1292,1.05273 0.28711,1.05273 0.1579,0 0.47576,-0.47379 0.70703,-1.05273 0.23127,-0.579 0.10206,-1.05274 -0.28711,-1.05274 z m -20.95703,0.26563 c -0.0768,0.0738 -0.12899,0.31973 -0.14649,0.72851 -0.0317,0.73983 0.14006,1.15508 0.38281,0.92188 0.24277,-0.23321 0.26962,-0.83909 0.0586,-1.34571 -0.1166,-0.27993 -0.21811,-0.37847 -0.29492,-0.30468 z m 8.76562,0 c -0.0768,0.0738 -0.12893,0.31973 -0.14648,0.72851 -0.0317,0.73983 0.14202,1.15508 0.38476,0.92188 0.24277,-0.23321 0.26782,-0.83909 0.0566,-1.34571 -0.1166,-0.27993 -0.21812,-0.37847 -0.29492,-0.30468 z m 7.86328,9.56054 c 3.44091,0 4.35157,0.66752 4.35157,3.1875 0,1.28456 -0.32107,3.14465 -0.7129,4.13477 -0.65717,1.66069 -1.05787,1.80078 -5.16601,1.80078 -2.87246,0 -4.82132,-0.35345 -5.49024,-0.99609 -0.68792,-0.66089 -0.76406,-1.08436 -0.22851,-1.25586 0.44409,-0.1422 0.66435,-0.87747 0.49023,-1.63477 -0.25357,-1.10286 -0.55423,-0.85405 -1.50781,1.25391 -0.6548,1.44749 -1.66148,2.63281 -2.23828,2.63281 -0.78547,0 -0.5238,-0.97151 1.04101,-3.86914 1.14916,-2.12787 2.08413,-4.10212 2.07813,-4.38672 -0.006,-0.2846 0.58781,-0.60831 1.32031,-0.7207 1.14244,-0.1753 1.35758,0.36619 1.50781,3.8164 0.27508,6.31543 1.63111,6.25164 2.17969,-0.10351 0.31771,-3.68062 0.42811,-3.85938 2.375,-3.85938 z m -23.21289,0.11719 c 0.50685,0.20183 0.46252,1.17096 0.11719,4.20899 -0.59345,5.22082 0.43535,4.99782 1.5293,-0.33204 0.52492,-2.55744 1.12606,-3.70058 2.03711,-3.86914 1.02329,-0.18934 1.20686,0.1016 0.88085,1.39649 -0.22651,0.89972 -0.48557,2.97674 -0.57617,4.61523 l -0.16601,2.97852 -3.06055,0.004 c -1.68386,0.002 -3.19515,-0.23393 -3.35742,-0.52343 -0.16228,-0.28949 -0.0984,-2.25995 0.14062,-4.37891 0.33402,-2.96131 0.73997,-3.90756 1.75586,-4.09375 0.30106,-0.0552 0.53027,-0.0727 0.69922,-0.006 z m 9.53516,0.0254 c 1.73202,-0.12419 3.41992,0.01 3.41992,0.51953 0,0.40715 -0.45591,0.74024 -1.01172,0.74024 -1.15097,0 -1.88579,2.10552 -1.90039,5.43945 -0.008,1.81702 -0.31135,2.28125 -1.48633,2.28125 -1.14089,0 -1.3986,-0.3589 -1.14258,-1.58008 1.24586,-5.94255 1.22232,-6.3202 -0.34765,-5.92578 -0.95387,0.23964 -1.39755,0.0769 -1.21875,-0.44531 0.17898,-0.52278 1.95547,-0.90511 3.6875,-1.0293 z m 15.25586,1.25977 c -0.85433,0 -1.58591,2.39294 -1.59961,5.22851 -0.014,2.90658 1.18556,1.41326 1.80469,-2.24609 0.30363,-1.79455 0.22181,-2.98242 -0.20508,-2.98242 z m -125.09961,82.51367 c 0.13267,0.11243 0.24468,0.24876 0.3789,0.35938 -0.42809,-0.66197 0.71885,0.68044 0.71485,0.40625 -0.002,-0.10819 -0.64819,-0.46771 -0.61719,-0.47071 0.29579,-0.0274 0.57533,0.14614 0.86523,0.21094 0.048,0.0107 0.0965,0.019 0.14453,0.0293 -0.49485,-0.19977 -0.98459,-0.3847 -1.48632,-0.53516 z" /></g></svg>
